<?xml version="1.0" standalone="no"?><!DOCTYPE svg PUBLIC "-//W3C//DTD SVG 1.1//EN" "http://www.w3.org/Graphics/SVG/1.1/DTD/svg11.dtd"><svg t="1525070009931" class="icon" style="" viewBox="0 0 1024 1024" version="1.1" xmlns="http://www.w3.org/2000/svg" p-id="1207" xmlns:xlink="http://www.w3.org/1999/xlink" width="200" height="200"><defs><style type="text/css"></style></defs><path d="M496.67 889.47m-15 0a15 15 0 1 0 30 0 15 15 0 1 0-30 0Z" fill="#FF8429" p-id="1208"></path><path d="M781.29 249.68a381.8 381.8 0 0 0-152.9-89.51A40 40 0 0 0 605 236.69a301.42 301.42 0 0 1 120.78 70.61c56.62 54.55 87.8 128.5 87.8 208.21v127.07c0 164-132.47 292.55-301.58 292.55s-301.59-128.5-301.59-292.55V515.51c0-132.58 87.16-245.6 216.9-281.24a40 40 0 0 0-21.19-77.14 383.35 383.35 0 0 0-110 49.78 371.66 371.66 0 0 0-87.38 80.27c-51.27 65.12-78.36 144.07-78.36 228.33v127.07c0 101.65 39.88 196.06 112.29 265.82 71.43 68.82 167.07 106.73 269.3 106.73s197.86-37.9 269.29-106.73c72.41-69.77 112.29-164.17 112.29-265.82V515.51c0.03-101.65-39.85-196.06-112.26-265.83z" fill="#FF8429" p-id="1209"></path><path d="M542.93 888.84a15 15 0 0 0 14.78 12.54 15.16 15.16 0 0 0 2.48-0.21c55.38-9.2 105.45-34.09 144.79-72 50.7-48.84 78.62-115.11 78.62-186.61a15 15 0 1 0-30 0c0 63.27-24.66 121.87-69.43 165-35 33.67-79.52 55.81-128.89 64a15 15 0 0 0-12.35 17.28z" fill="#FF8429" p-id="1210"></path><path d="M476.71 172.56v248.22a119.49 119.49 0 1 0 80 1.79V172.25c0-2.32-0.25-23.45-9.07-52.1a238 238 0 0 0-61.43-99.92 40 40 0 1 0-55.84 57.28c44.1 43 46.25 91.69 46.34 95.05z m37.5 322.19a39.48 39.48 0 1 1-39.48 39.48 39.52 39.52 0 0 1 39.48-39.48z" fill="#889CFC" p-id="1211"></path></svg>