<?xml version="1.0" standalone="no"?><!DOCTYPE svg PUBLIC "-//W3C//DTD SVG 1.1//EN" "http://www.w3.org/Graphics/SVG/1.1/DTD/svg11.dtd"><svg t="1525069395029" class="icon" style="" viewBox="0 0 1024 1024" version="1.1" xmlns="http://www.w3.org/2000/svg" p-id="8099" xmlns:xlink="http://www.w3.org/1999/xlink" width="200" height="200"><defs><style type="text/css"></style></defs><path d="M512.1 440.1c-103.4 0-187.6-84.2-187.6-187.6S408.7 64.9 512.1 64.9s187.6 84.2 187.6 187.6-84.2 187.6-187.6 187.6z m0-351c-90.1 0-163.4 73.3-163.4 163.4S422 415.9 512.1 415.9s163.4-73.3 163.4-163.4S602.2 89.1 512.1 89.1z" fill="#FF9100" p-id="8100"></path><path d="M863.1 779c0-193.8-157.1-351-351-351s-351 157.1-351 351h702z" fill="#FFEFDC" p-id="8101"></path><path d="M863.1 791.1h-702c-6.7 0-12.1-5.4-12.1-12.1 0-200.2 162.9-363.1 363.1-363.1S875.2 578.8 875.2 779c0 6.7-5.4 12.1-12.1 12.1z m-689.7-24.2h677.3C844.3 585.6 694.8 440.1 512 440.1S179.8 585.6 173.4 766.9z" fill="#FF9100" p-id="8102"></path><path d="M608.9 657.9l-96.8 78.7-96.8-78.7 72.6-157.3h48.4z" fill="#FFFFFF" p-id="8103"></path><path d="M512.1 748.7c-2.7 0-5.4-0.9-7.6-2.7l-96.8-78.7c-4.3-3.5-5.7-9.4-3.4-14.5l72.6-157.3c2-4.3 6.3-7 11-7h48.4c4.7 0 9 2.7 11 7l72.6 157.3c2.3 5 0.9 11-3.4 14.5L519.7 746c-2.2 1.8-4.9 2.7-7.6 2.7z m-81.9-94.2l81.9 66.5 81.9-66.5-65.4-141.8h-32.9l-65.5 141.8z" fill="#FF9100" p-id="8104"></path></svg>