<?xml version="1.0" standalone="no"?><!DOCTYPE svg PUBLIC "-//W3C//DTD SVG 1.1//EN" "http://www.w3.org/Graphics/SVG/1.1/DTD/svg11.dtd"><svg t="1525069408088" class="icon" style="" viewBox="0 0 1024 1024" version="1.1" xmlns="http://www.w3.org/2000/svg" p-id="9333" xmlns:xlink="http://www.w3.org/1999/xlink" width="200" height="200"><defs><style type="text/css"></style></defs><path d="M1000.369231 955.733333H15.753846L0 1024h1024z" fill="#DA0D17" p-id="9334"></path><path d="M0 1024h89.271795c10.502564-97.148718 55.138462-186.420513 120.779487-252.061538 76.14359-76.14359 183.794872-123.405128 301.948718-123.405129S735.179487 695.794872 813.948718 771.938462c65.641026 65.641026 110.276923 152.287179 120.779487 252.061538H1024c-10.502564-120.779487-65.641026-231.05641-149.661538-315.076923-49.887179-49.887179-112.902564-91.897436-181.169231-118.153846 18.379487-10.502564 34.133333-26.25641 47.261538-39.384616 57.764103-57.764103 94.523077-139.158974 94.523077-228.430769s-36.758974-170.666667-94.523077-228.430769C682.666667 36.758974 601.271795 0 512 0c-89.271795 0-170.666667 36.758974-231.05641 94.523077-57.764103 57.764103-94.523077 139.158974-94.523077 228.430769s36.758974 170.666667 94.523077 228.430769c15.753846 15.753846 31.507692 28.882051 47.261538 39.384616-68.266667 26.25641-131.282051 65.641026-181.169231 118.153846C65.641026 792.94359 10.502564 903.220513 0 1024z m275.692308-698.420513c0-65.641026 26.25641-123.405128 68.266666-168.041025 42.010256-42.010256 102.4-68.266667 168.041026-68.266667 65.641026 0 126.030769 26.25641 168.041026 68.266667 42.010256 42.010256 68.266667 102.4 68.266666 168.041025 0 65.641026-26.25641 123.405128-68.266666 168.041026-42.010256 42.010256-102.4 68.266667-168.041026 68.266666-65.641026 0-123.405128-26.25641-168.041026-68.266666-42.010256-44.635897-68.266667-105.025641-68.266666-168.041026z" fill="#DA0D17" p-id="9335"></path><path d="M512 456.861538c-36.758974 0-68.266667-26.25641-78.769231-60.389743-2.625641-10.502564-10.502564-18.379487-23.630769-18.379487-15.753846 0-26.25641 13.128205-23.630769 28.882051 13.128205 55.138462 63.015385 97.148718 123.405128 97.148718s110.276923-42.010256 123.405128-97.148718c2.625641-15.753846-7.876923-28.882051-23.630769-28.882051-10.502564 0-21.005128 7.876923-23.630769 18.379487-5.251282 34.133333-36.758974 60.389744-73.517949 60.389743z" fill="#DA0D17" p-id="9336"></path></svg>