<?xml version="1.0" standalone="no"?><!DOCTYPE svg PUBLIC "-//W3C//DTD SVG 1.1//EN" "http://www.w3.org/Graphics/SVG/1.1/DTD/svg11.dtd"><svg t="1525070470244" class="icon" style="" viewBox="0 0 1137 1024" version="1.1" xmlns="http://www.w3.org/2000/svg" p-id="29411" xmlns:xlink="http://www.w3.org/1999/xlink" width="222.0703125" height="200"><defs><style type="text/css"></style></defs><path d="M564.906039 896.000142L1044.478839 477.184608a56.092382 56.092382 0 0 1 37.31907-13.994652c14.449762 0 27.534192 5.34755 37.31907 13.994652 9.784878 7.73688 15.928871 19.455978 15.928871 32.540408a41.528843 41.528843 0 0 1-15.928871 32.540408L567.636703 1024 16.042649 542.265424A41.528843 41.528843 0 0 1 0 509.725016c0-13.08443 6.143993-24.803528 15.928871-32.540408a56.20616 56.20616 0 0 1 37.31907-13.994652c14.449762 0 27.534192 5.34755 37.319069 13.994652l474.225251 418.815534z m2.616886-463.075041L1047.209503 13.995789A56.092382 56.092382 0 0 1 1084.301017 0.001138c14.449762 0 27.534192 5.34755 37.31907 13.994651 9.784878 7.850658 16.042649 19.455978 16.042649 32.540408a41.528843 41.528843 0 0 1-15.928871 32.540408L567.522925 560.924959 16.042649 79.190383A41.528843 41.528843 0 0 1 0 46.649975C0 33.451767 6.257771 21.846447 15.928871 14.109567A56.20616 56.20616 0 0 1 53.475496 0.001138C67.81148 0.001138 80.782132 5.348687 90.680788 13.995789l476.842137 418.929312z" fill="#FF9400" p-id="29412"></path></svg>