<?xml version="1.0" standalone="no"?><!DOCTYPE svg PUBLIC "-//W3C//DTD SVG 1.1//EN" "http://www.w3.org/Graphics/SVG/1.1/DTD/svg11.dtd"><svg t="1525070481075" class="icon" style="" viewBox="0 0 1024 1024" version="1.1" xmlns="http://www.w3.org/2000/svg" p-id="31147" xmlns:xlink="http://www.w3.org/1999/xlink" width="200" height="200"><defs><style type="text/css"></style></defs><path d="M936.448 263.6544c10.57792 7.50592 17.40288 17.23392 20.48 29.184 3.072 11.94496 2.22208 25.6-2.56 40.96s-13.65504 30.88896-26.624 46.592c-55.98208 65.536-109.568 126.976-160.768 184.32s-100.352 110.592-147.456 159.744a137.06752 137.06752 0 0 1-45.568 31.744c-17.40288 7.51104-35.15392 11.42784-53.24288 11.776a146.3296 146.3296 0 0 1-52.736-8.704c-17.06496-6.144-31.744-15.69792-44.032-28.672-26.624-28.67712-54.61504-58.368-83.968-89.088l-86.016-92.16a10075.4944 10075.4944 0 0 1-86.016-91.136 32133.632 32133.632 0 0 1-79.872-86.016c-11.60704-13.65504-19.11296-27.47904-22.528-41.47712-3.41504-13.99296-3.24096-26.79296 0.512-38.4s10.752-21.16608 20.992-28.672c10.24-7.51104 23.552-11.264 39.936-11.264H896c16.384 0.00512 29.87008 3.75808 40.448 11.26912z" fill="#05AB7A" p-id="31148"></path></svg>