<?xml version="1.0" standalone="no"?><!DOCTYPE svg PUBLIC "-//W3C//DTD SVG 1.1//EN" "http://www.w3.org/Graphics/SVG/1.1/DTD/svg11.dtd"><svg t="1525068503855" class="icon" style="" viewBox="0 0 1024 1024" version="1.1" xmlns="http://www.w3.org/2000/svg" p-id="1447" xmlns:xlink="http://www.w3.org/1999/xlink" width="200" height="200"><defs><style type="text/css"></style></defs><path d="M989.25 455.38l-5.4-33.67h-63.69v-0.88A412.95 412.95 0 0 0 104 331.94c-4.63 21.06 8.32 43.2 29.26 48.36a40 40 0 0 0 48.7-30.35C214.85 198.15 351.67 88 507.28 88c183.85 0 333.36 149.8 332.88 333.74h-801l-5.4 33.67a488.74 488.74 0 0 0-6.14 77.17 484 484 0 0 0 929.73 188.33 480.83 480.83 0 0 0 38-188.35 488.74 488.74 0 0 0-6.1-77.18zM512 936.41c-222.68 0-403.85-181.17-403.85-403.85 0-10.28 0.39-20.58 1.17-30.84h805.36c0.78 10.26 1.17 20.56 1.17 30.84 0 222.68-181.17 403.85-403.85 403.85z" fill="#A960CB" p-id="1448"></path><path d="M389.95 659.71a122.46 122.46 0 0 0 82.21 119.36v72.45c0 20.7 16.86 39.41 37.52 40.65a40 40 0 0 0 42.48-39.93v-73.17a122.27 122.27 0 0 0-42.08-237.8c-64.97 1.09-118.14 53.48-120.13 118.44zM512 705.8a42.27 42.27 0 1 1 42.27-42.27A42.32 42.32 0 0 1 512 705.8z" fill="#FF8429" p-id="1449"></path><path d="M507.77 118.14a15 15 0 1 0 0 30A272.41 272.41 0 0 1 758.21 313a15 15 0 0 0 27.56-11.86 302.38 302.38 0 0 0-278-183z" fill="#A960CB" p-id="1450"></path><path d="M787.15 352.18m-15 0a15 15 0 1 0 30 0 15 15 0 1 0-30 0Z" fill="#A960CB" p-id="1451"></path></svg>